<mxfile host="app.diagrams.net" modified="2023-09-13T17:14:05.540Z" agent="Mozilla/5.0 (Macintosh; Intel Mac OS X 10_15_7) AppleWebKit/537.36 (KHTML, like Gecko) Chrome/116.0.0.0 Safari/537.36 Edg/116.0.1938.69" etag="IhBlsCIkIDYYz_5rnsZ4" version="21.6.8" type="device">
  <diagram name="Page-1" id="cc29HmkyMRKGsr2kk8NS">
    <mxGraphModel dx="1332" dy="1082" grid="1" gridSize="10" guides="1" tooltips="1" connect="1" arrows="1" fold="1" page="1" pageScale="1" pageWidth="850" pageHeight="1100" math="0" shadow="0">
      <root>
        <mxCell id="0" />
        <mxCell id="1" parent="0" />
        <mxCell id="YlA6S550wJMDQvsFW9L1-16" value="&lt;b&gt;Unit Type Pool&lt;/b&gt;" style="swimlane;fontStyle=0;childLayout=stackLayout;horizontal=1;startSize=30;horizontalStack=0;resizeParent=1;resizeParentMax=0;resizeLast=0;collapsible=1;marginBottom=0;whiteSpace=wrap;html=1;fillColor=#1ba1e2;fontColor=#ffffff;strokeColor=#006EAF;" vertex="1" parent="1">
          <mxGeometry x="275" y="150" width="290" height="60" as="geometry" />
        </mxCell>
        <mxCell id="YlA6S550wJMDQvsFW9L1-17" value="unit_types: List[UnitType]" style="text;strokeColor=none;fillColor=none;align=left;verticalAlign=middle;spacingLeft=4;spacingRight=4;overflow=hidden;points=[[0,0.5],[1,0.5]];portConstraint=eastwest;rotatable=0;whiteSpace=wrap;html=1;" vertex="1" parent="YlA6S550wJMDQvsFW9L1-16">
          <mxGeometry y="30" width="290" height="30" as="geometry" />
        </mxCell>
        <mxCell id="YlA6S550wJMDQvsFW9L1-24" value="Unit Generator" style="swimlane;whiteSpace=wrap;html=1;fillColor=#60a917;fontColor=#ffffff;strokeColor=#2D7600;" vertex="1" parent="1">
          <mxGeometry x="255" y="100" width="330" height="140" as="geometry" />
        </mxCell>
        <mxCell id="YlA6S550wJMDQvsFW9L1-25" value="Group Unit Generator" style="swimlane;whiteSpace=wrap;html=1;fillColor=#008a00;fontColor=#ffffff;strokeColor=#005700;" vertex="1" parent="1">
          <mxGeometry x="235" y="60" width="380" height="210" as="geometry" />
        </mxCell>
        <mxCell id="YlA6S550wJMDQvsFW9L1-26" value="Group" style="swimlane;whiteSpace=wrap;html=1;fillColor=#b1ddf0;strokeColor=#10739e;" vertex="1" parent="1">
          <mxGeometry x="215" y="20" width="420" height="430" as="geometry" />
        </mxCell>
        <mxCell id="YlA6S550wJMDQvsFW9L1-27" value="group_units" style="swimlane;whiteSpace=wrap;html=1;fillColor=#647687;fontColor=#ffffff;strokeColor=#314354;" vertex="1" parent="YlA6S550wJMDQvsFW9L1-26">
          <mxGeometry x="20" y="270" width="380" height="60" as="geometry" />
        </mxCell>
        <mxCell id="YlA6S550wJMDQvsFW9L1-28" value="List[GroupUnit]" style="text;html=1;align=center;verticalAlign=middle;resizable=0;points=[];autosize=1;strokeColor=none;fillColor=none;" vertex="1" parent="YlA6S550wJMDQvsFW9L1-27">
          <mxGeometry y="30" width="100" height="30" as="geometry" />
        </mxCell>
        <mxCell id="YlA6S550wJMDQvsFW9L1-29" value="active_group_unit" style="swimlane;whiteSpace=wrap;html=1;fillColor=#d80073;strokeColor=#A50040;fontColor=#ffffff;" vertex="1" parent="YlA6S550wJMDQvsFW9L1-26">
          <mxGeometry x="20" y="350" width="380" height="60" as="geometry" />
        </mxCell>
        <mxCell id="YlA6S550wJMDQvsFW9L1-30" value="GroupUnit" style="text;html=1;align=center;verticalAlign=middle;resizable=0;points=[];autosize=1;strokeColor=none;fillColor=none;" vertex="1" parent="YlA6S550wJMDQvsFW9L1-29">
          <mxGeometry y="28" width="80" height="30" as="geometry" />
        </mxCell>
        <mxCell id="YlA6S550wJMDQvsFW9L1-36" value="Nonce Paths" style="swimlane;whiteSpace=wrap;html=1;fillColor=#fad7ac;strokeColor=#b46504;gradientColor=#FFBA42;" vertex="1" parent="1">
          <mxGeometry x="215" y="510" width="665" height="710" as="geometry" />
        </mxCell>
        <mxCell id="YlA6S550wJMDQvsFW9L1-63" value="Tier 3" style="shape=process;whiteSpace=wrap;html=1;backgroundOutline=1;fillColor=#fad7ac;strokeColor=#b46504;verticalAlign=top;gradientColor=#FF8000;gradientDirection=north;" vertex="1" parent="YlA6S550wJMDQvsFW9L1-36">
          <mxGeometry x="355" y="40" width="120" height="660" as="geometry" />
        </mxCell>
        <mxCell id="YlA6S550wJMDQvsFW9L1-62" value="Tier 2" style="shape=process;whiteSpace=wrap;html=1;backgroundOutline=1;fillColor=#C9AD8B;strokeColor=#b46504;gradientColor=#CC6600;verticalAlign=top;gradientDirection=north;" vertex="1" parent="YlA6S550wJMDQvsFW9L1-36">
          <mxGeometry x="185" y="40" width="120" height="660" as="geometry" />
        </mxCell>
        <mxCell id="YlA6S550wJMDQvsFW9L1-61" value="Tier 1" style="shape=process;whiteSpace=wrap;html=1;backgroundOutline=1;fillColor=#fad7ac;strokeColor=#b46504;align=center;verticalAlign=top;gradientColor=#FF8000;gradientDirection=north;" vertex="1" parent="YlA6S550wJMDQvsFW9L1-36">
          <mxGeometry x="20" y="40" width="120" height="660" as="geometry" />
        </mxCell>
        <mxCell id="YlA6S550wJMDQvsFW9L1-38" value="" style="edgeStyle=orthogonalEdgeStyle;rounded=0;orthogonalLoop=1;jettySize=auto;html=1;strokeWidth=5;" edge="1" parent="YlA6S550wJMDQvsFW9L1-36" source="YlA6S550wJMDQvsFW9L1-35" target="YlA6S550wJMDQvsFW9L1-37">
          <mxGeometry relative="1" as="geometry" />
        </mxCell>
        <mxCell id="YlA6S550wJMDQvsFW9L1-40" value="" style="edgeStyle=orthogonalEdgeStyle;rounded=0;orthogonalLoop=1;jettySize=auto;html=1;strokeWidth=5;" edge="1" parent="YlA6S550wJMDQvsFW9L1-36" source="YlA6S550wJMDQvsFW9L1-35" target="YlA6S550wJMDQvsFW9L1-39">
          <mxGeometry relative="1" as="geometry" />
        </mxCell>
        <mxCell id="YlA6S550wJMDQvsFW9L1-35" value="&lt;b&gt;&lt;font style=&quot;font-size: 32px;&quot;&gt;0&lt;/font&gt;&lt;/b&gt;" style="rounded=1;whiteSpace=wrap;html=1;" vertex="1" parent="YlA6S550wJMDQvsFW9L1-36">
          <mxGeometry x="20" y="150" width="120" height="60" as="geometry" />
        </mxCell>
        <mxCell id="YlA6S550wJMDQvsFW9L1-44" value="" style="edgeStyle=orthogonalEdgeStyle;rounded=0;orthogonalLoop=1;jettySize=auto;html=1;strokeWidth=5;" edge="1" parent="YlA6S550wJMDQvsFW9L1-36" source="YlA6S550wJMDQvsFW9L1-37" target="YlA6S550wJMDQvsFW9L1-43">
          <mxGeometry relative="1" as="geometry" />
        </mxCell>
        <mxCell id="YlA6S550wJMDQvsFW9L1-56" value="" style="edgeStyle=orthogonalEdgeStyle;rounded=0;orthogonalLoop=1;jettySize=auto;html=1;strokeWidth=5;" edge="1" parent="YlA6S550wJMDQvsFW9L1-36" source="YlA6S550wJMDQvsFW9L1-37" target="YlA6S550wJMDQvsFW9L1-55">
          <mxGeometry relative="1" as="geometry" />
        </mxCell>
        <mxCell id="YlA6S550wJMDQvsFW9L1-37" value="&lt;b&gt;&lt;font style=&quot;font-size: 32px;&quot;&gt;1&lt;/font&gt;&lt;/b&gt;" style="rounded=1;whiteSpace=wrap;html=1;" vertex="1" parent="YlA6S550wJMDQvsFW9L1-36">
          <mxGeometry x="20" y="330" width="120" height="60" as="geometry" />
        </mxCell>
        <mxCell id="YlA6S550wJMDQvsFW9L1-42" value="" style="edgeStyle=orthogonalEdgeStyle;rounded=0;orthogonalLoop=1;jettySize=auto;html=1;strokeWidth=5;" edge="1" parent="YlA6S550wJMDQvsFW9L1-36" source="YlA6S550wJMDQvsFW9L1-39" target="YlA6S550wJMDQvsFW9L1-41">
          <mxGeometry relative="1" as="geometry" />
        </mxCell>
        <mxCell id="YlA6S550wJMDQvsFW9L1-46" value="" style="edgeStyle=orthogonalEdgeStyle;rounded=0;orthogonalLoop=1;jettySize=auto;html=1;strokeWidth=5;" edge="1" parent="YlA6S550wJMDQvsFW9L1-36" source="YlA6S550wJMDQvsFW9L1-39" target="YlA6S550wJMDQvsFW9L1-45">
          <mxGeometry relative="1" as="geometry" />
        </mxCell>
        <mxCell id="YlA6S550wJMDQvsFW9L1-39" value="&lt;b&gt;&lt;font style=&quot;font-size: 32px;&quot;&gt;0.0&lt;/font&gt;&lt;/b&gt;" style="rounded=1;whiteSpace=wrap;html=1;" vertex="1" parent="YlA6S550wJMDQvsFW9L1-36">
          <mxGeometry x="185" y="150" width="120" height="60" as="geometry" />
        </mxCell>
        <mxCell id="YlA6S550wJMDQvsFW9L1-48" value="" style="edgeStyle=orthogonalEdgeStyle;rounded=0;orthogonalLoop=1;jettySize=auto;html=1;strokeWidth=5;" edge="1" parent="YlA6S550wJMDQvsFW9L1-36" source="YlA6S550wJMDQvsFW9L1-41" target="YlA6S550wJMDQvsFW9L1-47">
          <mxGeometry relative="1" as="geometry" />
        </mxCell>
        <mxCell id="YlA6S550wJMDQvsFW9L1-41" value="&lt;b&gt;&lt;font style=&quot;font-size: 32px;&quot;&gt;0.1&lt;/font&gt;&lt;/b&gt;" style="rounded=1;whiteSpace=wrap;html=1;" vertex="1" parent="YlA6S550wJMDQvsFW9L1-36">
          <mxGeometry x="185" y="240" width="120" height="60" as="geometry" />
        </mxCell>
        <mxCell id="YlA6S550wJMDQvsFW9L1-50" value="" style="edgeStyle=orthogonalEdgeStyle;rounded=0;orthogonalLoop=1;jettySize=auto;html=1;strokeWidth=5;" edge="1" parent="YlA6S550wJMDQvsFW9L1-36" source="YlA6S550wJMDQvsFW9L1-43" target="YlA6S550wJMDQvsFW9L1-49">
          <mxGeometry relative="1" as="geometry" />
        </mxCell>
        <mxCell id="YlA6S550wJMDQvsFW9L1-43" value="&lt;span style=&quot;font-size: 32px;&quot;&gt;&lt;b&gt;1.0&lt;/b&gt;&lt;/span&gt;" style="rounded=1;whiteSpace=wrap;html=1;" vertex="1" parent="YlA6S550wJMDQvsFW9L1-36">
          <mxGeometry x="185" y="330" width="120" height="60" as="geometry" />
        </mxCell>
        <mxCell id="YlA6S550wJMDQvsFW9L1-45" value="&lt;b&gt;&lt;font style=&quot;font-size: 32px;&quot;&gt;0.0.0&lt;/font&gt;&lt;/b&gt;" style="rounded=1;whiteSpace=wrap;html=1;" vertex="1" parent="YlA6S550wJMDQvsFW9L1-36">
          <mxGeometry x="355" y="150" width="120" height="60" as="geometry" />
        </mxCell>
        <mxCell id="YlA6S550wJMDQvsFW9L1-47" value="&lt;b&gt;&lt;font style=&quot;font-size: 32px;&quot;&gt;0.1.0&lt;/font&gt;&lt;/b&gt;" style="rounded=1;whiteSpace=wrap;html=1;" vertex="1" parent="YlA6S550wJMDQvsFW9L1-36">
          <mxGeometry x="355" y="240" width="120" height="60" as="geometry" />
        </mxCell>
        <mxCell id="YlA6S550wJMDQvsFW9L1-52" value="" style="edgeStyle=orthogonalEdgeStyle;rounded=0;orthogonalLoop=1;jettySize=auto;html=1;strokeWidth=5;" edge="1" parent="YlA6S550wJMDQvsFW9L1-36" source="YlA6S550wJMDQvsFW9L1-49" target="YlA6S550wJMDQvsFW9L1-51">
          <mxGeometry relative="1" as="geometry" />
        </mxCell>
        <mxCell id="YlA6S550wJMDQvsFW9L1-54" value="" style="edgeStyle=orthogonalEdgeStyle;rounded=0;orthogonalLoop=1;jettySize=auto;html=1;strokeWidth=5;" edge="1" parent="YlA6S550wJMDQvsFW9L1-36" source="YlA6S550wJMDQvsFW9L1-49" target="YlA6S550wJMDQvsFW9L1-53">
          <mxGeometry relative="1" as="geometry" />
        </mxCell>
        <mxCell id="YlA6S550wJMDQvsFW9L1-49" value="&lt;span style=&quot;font-size: 32px;&quot;&gt;&lt;b&gt;1.1&lt;/b&gt;&lt;/span&gt;" style="rounded=1;whiteSpace=wrap;html=1;" vertex="1" parent="YlA6S550wJMDQvsFW9L1-36">
          <mxGeometry x="185" y="420" width="120" height="60" as="geometry" />
        </mxCell>
        <mxCell id="YlA6S550wJMDQvsFW9L1-58" value="" style="edgeStyle=orthogonalEdgeStyle;rounded=0;orthogonalLoop=1;jettySize=auto;html=1;strokeWidth=5;" edge="1" parent="YlA6S550wJMDQvsFW9L1-36" source="YlA6S550wJMDQvsFW9L1-51" target="YlA6S550wJMDQvsFW9L1-57">
          <mxGeometry relative="1" as="geometry" />
        </mxCell>
        <mxCell id="YlA6S550wJMDQvsFW9L1-51" value="&lt;span style=&quot;font-size: 32px;&quot;&gt;&lt;b&gt;1.1.0&lt;/b&gt;&lt;/span&gt;" style="rounded=1;whiteSpace=wrap;html=1;" vertex="1" parent="YlA6S550wJMDQvsFW9L1-36">
          <mxGeometry x="355" y="420" width="120" height="60" as="geometry" />
        </mxCell>
        <mxCell id="YlA6S550wJMDQvsFW9L1-53" value="&lt;span style=&quot;font-size: 32px;&quot;&gt;&lt;b&gt;1.2&lt;/b&gt;&lt;/span&gt;" style="rounded=1;whiteSpace=wrap;html=1;" vertex="1" parent="YlA6S550wJMDQvsFW9L1-36">
          <mxGeometry x="185" y="510" width="120" height="60" as="geometry" />
        </mxCell>
        <mxCell id="YlA6S550wJMDQvsFW9L1-60" value="" style="edgeStyle=orthogonalEdgeStyle;rounded=0;orthogonalLoop=1;jettySize=auto;html=1;strokeWidth=5;" edge="1" parent="YlA6S550wJMDQvsFW9L1-36" source="YlA6S550wJMDQvsFW9L1-55" target="YlA6S550wJMDQvsFW9L1-59">
          <mxGeometry relative="1" as="geometry" />
        </mxCell>
        <mxCell id="YlA6S550wJMDQvsFW9L1-55" value="&lt;b&gt;&lt;font style=&quot;font-size: 32px;&quot;&gt;2&lt;/font&gt;&lt;/b&gt;" style="rounded=1;whiteSpace=wrap;html=1;" vertex="1" parent="YlA6S550wJMDQvsFW9L1-36">
          <mxGeometry x="20" y="600" width="120" height="60" as="geometry" />
        </mxCell>
        <mxCell id="YlA6S550wJMDQvsFW9L1-66" value="" style="edgeStyle=orthogonalEdgeStyle;rounded=0;orthogonalLoop=1;jettySize=auto;html=1;strokeWidth=5;" edge="1" parent="YlA6S550wJMDQvsFW9L1-36" source="YlA6S550wJMDQvsFW9L1-57" target="YlA6S550wJMDQvsFW9L1-65">
          <mxGeometry relative="1" as="geometry" />
        </mxCell>
        <mxCell id="YlA6S550wJMDQvsFW9L1-57" value="&lt;span style=&quot;font-size: 32px;&quot;&gt;&lt;b&gt;1.1.1&lt;/b&gt;&lt;/span&gt;" style="rounded=1;whiteSpace=wrap;html=1;" vertex="1" parent="YlA6S550wJMDQvsFW9L1-36">
          <mxGeometry x="355" y="510" width="120" height="60" as="geometry" />
        </mxCell>
        <mxCell id="YlA6S550wJMDQvsFW9L1-59" value="&lt;b&gt;&lt;font style=&quot;font-size: 32px;&quot;&gt;2.0&lt;/font&gt;&lt;/b&gt;" style="rounded=1;whiteSpace=wrap;html=1;" vertex="1" parent="YlA6S550wJMDQvsFW9L1-36">
          <mxGeometry x="185" y="600" width="120" height="60" as="geometry" />
        </mxCell>
        <mxCell id="YlA6S550wJMDQvsFW9L1-64" value="Tier 4" style="shape=process;whiteSpace=wrap;html=1;backgroundOutline=1;fillColor=#C9AD8B;strokeColor=#b46504;gradientColor=#CC6600;verticalAlign=top;gradientDirection=north;" vertex="1" parent="YlA6S550wJMDQvsFW9L1-36">
          <mxGeometry x="525" y="40" width="120" height="660" as="geometry" />
        </mxCell>
        <mxCell id="YlA6S550wJMDQvsFW9L1-65" value="&lt;span style=&quot;font-size: 32px;&quot;&gt;&lt;b&gt;1.1.1.0&lt;/b&gt;&lt;/span&gt;" style="rounded=1;whiteSpace=wrap;html=1;" vertex="1" parent="YlA6S550wJMDQvsFW9L1-36">
          <mxGeometry x="525" y="510" width="120" height="60" as="geometry" />
        </mxCell>
      </root>
    </mxGraphModel>
  </diagram>
</mxfile>
